<svg xmlns="http://www.w3.org/2000/svg" version="1.1" xmlns:xlink="http://www.w3.org/1999/xlink" width="1000" height="1000"><g clip-path="url(#SvgjsClipPath1169)"><rect width="1000" height="1000" fill="#0f6a5f"></rect><g transform="matrix(7,0,0,7,150,150)"><svg xmlns="http://www.w3.org/2000/svg" version="1.1" xmlns:xlink="http://www.w3.org/1999/xlink" width="100" height="100"><svg id="mustache" xmlns="http://www.w3.org/2000/svg" version="1.1" viewBox="0 0 100 100">
  <!-- Generator: Adobe Illustrator 29.0.1, SVG Export Plug-In . SVG Version: 2.1.0 Build 192)  -->
  <defs>
    <style>
      .st0 {
        fill: #fff;
        stroke: #fff;
        stroke-linecap: round;
        stroke-linejoin: round;
        stroke-width: 4px;
      }
    </style>
  <clipPath id="SvgjsClipPath1169"><rect width="1000" height="1000" x="0" y="0" rx="350" ry="350"></rect></clipPath></defs>
  <path class="st0" d="M45.5,52.8c-.3,0-.8.2-1.3.2-.3,0-.6,0-.8,0-.3,0-.6,0-.8-.1-11.3-.7-23.2,2-34,7.7,1.2-5.2,4.5-14.4,12.5-18.5,4.4-2.3,9.7-2.5,14.8-2.8,1.7,0,3.3-.2,4.9-.3h1.3c1.1,0,2.2.2,3,.5,1.8.8,2.7,2.4,2.5,4.9v2.2c.2,3.3,0,5.7-2.1,6.2Z"></path>
  <path class="st0" d="M91.4,60.6c-10.8-5.7-22.7-8.4-34-7.7-.2,0-.5,0-.8.1-.2,0-.5,0-.8,0-.5,0-1-.1-1.3-.2-2.1-.5-2.3-2.9-2.1-6.2v-2.2c-.2-2.6.7-4.2,2.5-4.9.8-.3,1.8-.5,3-.5h1.3c1.6,0,3.2.3,4.9.3,5.1.3,10.5.5,14.8,2.8,8.1,4.1,11.3,13.3,12.5,18.5Z"></path>
</svg></svg></g></g></svg>